<?xml version="1.0" encoding="utf-8"?>
<!-- Generator: Adobe Illustrator 16.0.0, SVG Export Plug-In . SVG Version: 6.00 Build 0)  -->
<svg version="1.2" baseProfile="tiny" id="Layer_1" xmlns="http://www.w3.org/2000/svg" xmlns:xlink="http://www.w3.org/1999/xlink"
	 x="0px" y="0px" width="1055px" height="215px" viewBox="0 0 1055 215" overflow="scroll" xml:space="preserve">
<g>
	<path fill="#FF4F1F" d="M93.094,67.804c12.062,0,22.11,10.049,22.11,22.11c0,12.059-10.048,22.108-22.11,22.108H37.317
		c-12.059,0-22.11-10.049-22.11-22.108c0-12.061,10.051-22.11,22.11-22.11H93.094 M93.094,53.734H37.317
		c-20.098,0-36.178,16.079-36.178,36.179c0,20.098,16.08,36.178,36.178,36.178h55.777c20.101,0,36.181-16.08,36.181-36.178
		C129.777,69.813,113.195,53.734,93.094,53.734L93.094,53.734z"/>
	<path fill="#FF4F1F" d="M93.094,152.725c12.062,0,22.11,10.053,22.11,22.109c0,12.061-10.048,22.109-22.11,22.109H69.478
		c-12.059,0-22.11-10.049-22.11-22.109c0-12.057,10.051-22.109,22.11-22.109H93.094 M93.094,138.654H69.478
		c-20.099,0-36.18,16.082-36.18,36.18c0,20.1,16.081,36.182,36.18,36.182h23.616c20.101,0,36.181-16.082,36.181-36.182
		C129.777,154.736,113.195,138.654,93.094,138.654L93.094,138.654z"/>
	<path fill="#FF4F1F" d="M107.667,13.534c5.025,0,9.547,4.02,9.547,9.548c0,5.024-4.02,9.547-9.547,9.547h-0.502
		c-5.025,0-8.543-4.02-9.045-9.044c0-2.513,1.005-5.025,2.514-7.035C102.642,14.54,105.156,13.534,107.667,13.534 M107.667,0.972
		c-12.563,0-22.11,10.552-21.607,22.612c0.503,11.054,9.548,20.099,20.602,20.602c0.503,0,0.503,0,1.006,0
		c12.06,0,21.607-9.547,21.607-21.606C129.275,10.52,119.727,0.972,107.667,0.972L107.667,0.972z"/>
	<polygon fill="#4E5054" points="323.74,211.016 323.74,53.734 412.177,53.734 412.177,69.311 339.316,69.311 339.316,123.58 
		404.64,123.58 404.64,139.158 339.316,139.158 339.316,195.438 412.177,195.438 412.177,211.016 	"/>
	<polygon fill="#4E5054" points="584.532,211.016 584.532,53.734 672.973,53.734 672.973,69.311 600.11,69.311 600.11,123.58 
		665.936,123.58 665.936,139.158 600.11,139.158 600.11,195.438 672.973,195.438 672.973,211.016 	"/>
	<polygon fill="#4E5054" points="849.85,211.016 849.85,145.691 796.585,53.734 814.173,53.734 857.89,129.107 901.104,53.734 
		918.691,53.734 865.427,145.691 865.427,211.016 	"/>
	<polygon fill="#4E5054" points="552.374,211.016 552.374,53.734 536.795,53.734 536.795,182.371 458.408,53.734 442.83,53.734 
		442.83,53.734 442.83,211.016 458.408,211.016 458.408,82.375 536.795,211.016 	"/>
	<path fill="#4E5054" d="M240.325,143.178h37.689v12.563c0,30.652-19.599,41.707-37.689,41.707
		c-18.089,0-37.686-11.055-37.686-41.707v-47.234c0-30.653,19.597-41.707,37.686-41.707c20.102,0,33.667,12.059,37.186,32.159
		h15.576c-3.516-29.146-24.119-47.737-52.762-47.737c-32.158,0-53.262,23.114-53.262,57.284v47.234
		c0,34.17,21.607,57.283,53.262,57.283c32.161,0,53.266-23.113,53.266-57.283v-28.139h-53.266V143.178z"/>
	<path fill="#4E5054" d="M708.146,163.275c1.507,21.105,15.577,34.172,35.173,34.172c20.102,0,30.652-9.549,30.652-27.637
		c0-13.066-8.039-22.613-21.606-26.131l-26.631-7.033c-19.599-5.027-31.155-21.107-31.155-42.21
		c0-25.627,18.091-42.713,45.224-42.713c31.155,0,44.723,21.607,47.736,43.214h-15.576c-3.517-18.089-15.076-27.636-31.657-27.636
		c-18.09,0-29.646,10.552-29.646,27.135c0,13.566,7.536,23.617,20.602,27.134l27.638,7.537
		c15.073,4.021,31.657,17.084,31.657,41.705c0,26.635-18.09,43.215-46.733,43.215c-35.676,0-50.248-27.133-50.751-49.744
		L708.146,163.275z"/>
	<path fill="#4E5054" d="M941.304,163.275c1.507,21.105,15.576,34.172,35.173,34.172c20.101,0,30.652-9.549,30.652-27.637
		c0-13.066-8.039-22.613-21.607-26.131l-26.63-7.033c-19.599-5.027-31.155-21.107-31.155-42.21
		c0-25.627,18.091-42.713,45.223-42.713c31.156,0,44.724,21.607,47.737,43.214h-15.576c-3.518-18.089-15.076-27.636-31.657-27.636
		c-18.09,0-29.647,10.552-29.647,27.135c0,13.566,7.537,23.617,20.602,27.134l27.639,7.537
		c15.073,4.021,31.657,17.084,31.657,41.705c0,26.635-18.09,43.215-46.733,43.215c-35.676,0-50.249-27.133-50.752-49.744
		L941.304,163.275z"/>
	<path fill="#4E5054" d="M1028.233,55.744h-5.022v-2.01h12.562v2.01h-5.025v14.069h-2.514V55.744z"/>
	<path fill="#4E5054" d="M1044.817,69.311l-4.523-13.566v13.566h-2.513V53.231h4.02l4.021,13.065l4.019-13.065h4.021v16.079h-2.512
		V55.744l-4.522,13.566H1044.817z"/>
</g>
</svg>
